<?xml version="1.0" encoding="utf-8"?>
<!-- Generator: Adobe Illustrator 18.0.0, SVG Export Plug-In . SVG Version: 6.00 Build 0)  -->
<!DOCTYPE svg PUBLIC "-//W3C//DTD SVG 1.1//EN" "http://www.w3.org/Graphics/SVG/1.1/DTD/svg11.dtd">
<svg version="1.1" id="Layer_1" xmlns="http://www.w3.org/2000/svg" xmlns:xlink="http://www.w3.org/1999/xlink" x="0px" y="0px"
	 viewBox="0 0 796 165.7" style="enable-background:new 0 0 796 165.7;" xml:space="preserve">
<g>
	<path d="M14,152.8V12.5H36v121.8h25v18.5H14z"/>
	<path d="M119.7,121.4c0,11-2.4,19.2-7.1,24.7c-4.7,5.5-11.8,8.2-21.3,8.2c-9.4,0-16.4-2.7-21.1-8.2c-4.7-5.5-7-13.7-7-24.7V43.7
		c0-11,2.3-19.3,7-24.8c4.7-5.5,11.7-8.2,21.1-8.2c9.5,0,16.5,2.8,21.3,8.3c4.7,5.5,7.1,13.8,7.1,24.7V121.4z M85.2,38.1v88.3
		c0,4.2,0.4,6.9,1.3,8.2c0.9,1.3,2.5,1.9,4.8,1.9c2.3,0,4-0.7,4.9-2.1c0.9-1.4,1.4-4,1.4-8V38.1c0-4-0.5-6.6-1.4-8
		c-0.9-1.3-2.6-2-4.9-2c-2.3,0-3.9,0.6-4.8,1.8C85.7,31.2,85.2,33.9,85.2,38.1z"/>
	<path d="M125.3,152.8V12.5h18L162,105c-0.5-10-0.9-18.3-1.2-25c-0.3-6.7-0.4-11.7-0.4-14.9V12.5h19.7v140.3h-18.8l-17.9-91.2
		c0.6,7.2,1,13.9,1.3,20c0.3,6.1,0.4,11.7,0.4,16.9v54.4H125.3z"/>
	<path d="M185.8,152.8V12.5h23.5c13,0,21.7,2.1,26.1,6.3c4.4,4.2,6.6,12.3,6.6,24.4v76.5c0,12.5-2.1,21.1-6.4,25.9
		c-4.3,4.8-11.9,7.1-22.8,7.1H185.8z M207.7,135h2c3.7,0,6.3-1,7.8-3.1c1.5-2.1,2.3-5.8,2.3-11.1V42.4c0-4.8-0.7-8.1-2.2-9.8
		c-1.5-1.8-4.1-2.7-7.9-2.7h-2V135z"/>
	<path d="M303.6,121.4c0,11-2.4,19.2-7.1,24.7c-4.7,5.5-11.8,8.2-21.3,8.2c-9.4,0-16.4-2.7-21.1-8.2c-4.7-5.5-7-13.7-7-24.7V43.7
		c0-11,2.3-19.3,7-24.8c4.7-5.5,11.7-8.2,21.1-8.2c9.5,0,16.5,2.8,21.3,8.3c4.7,5.5,7.1,13.8,7.1,24.7V121.4z M269.1,38.1v88.3
		c0,4.2,0.4,6.9,1.3,8.2c0.9,1.3,2.5,1.9,4.8,1.9c2.3,0,4-0.7,4.9-2.1c0.9-1.4,1.4-4,1.4-8V38.1c0-4-0.5-6.6-1.4-8
		c-0.9-1.3-2.6-2-4.9-2c-2.3,0-3.9,0.6-4.8,1.8C269.5,31.2,269.1,33.9,269.1,38.1z"/>
	<path d="M308.9,152.8V12.5h18l18.6,92.5c-0.5-10-0.9-18.3-1.2-25c-0.3-6.7-0.4-11.7-0.4-14.9V12.5h19.7v140.3h-18.8L327,61.5
		c0.6,7.2,1,13.9,1.3,20c0.3,6.1,0.4,11.7,0.4,16.9v54.4H308.9z"/>
</g>
<g>
	<path style="fill:#D2232A;" d="M436.8,41.2v16.9h-21.9V38.9c0-4.3-0.5-7.1-1.5-8.6c-1-1.5-2.8-2.2-5.3-2.2c-2.5,0-4.2,0.7-5.2,2.1
		c-1,1.4-1.5,4.3-1.5,8.6v9.5c0,5.4,4.8,13.6,14.5,24.6c4.1,4.7,7.3,8.4,9.5,11.1c4,5.1,7,9.9,8.9,14.5c1.9,4.6,2.9,9.3,2.9,13.9
		V123c0,10-2.6,17.8-7.7,23.2c-5.2,5.4-12.5,8.1-22,8.1c-10.4,0-17.8-2.4-22.2-7.3c-4.4-4.9-6.7-13.1-6.7-24.7V107h21.9v18.3
		c0,4.6,0.5,7.6,1.5,9.1c1,1.5,2.8,2.2,5.5,2.2c2.6,0,4.5-0.7,5.5-2.2c1-1.5,1.5-4.5,1.5-9.1v-9.7c0-1.7-0.2-3.5-0.7-5.3
		c-0.4-1.8-1.1-3.7-1.9-5.6c-1.1-2.4-4.3-6.7-9.9-13c-3.9-4.4-6.9-8-9.1-10.7c-5.3-6.7-8.8-12.2-10.7-16.7
		c-1.9-4.5-2.8-9.3-2.8-14.4V39.1c0-8.9,2.6-15.9,7.7-20.8c5.2-4.9,12.4-7.4,21.7-7.4c9.3,0,16.3,2.5,20.9,7.5
		C434.5,23.5,436.8,31.1,436.8,41.2z"/>
	<path style="fill:#D2232A;" d="M455,152.8v-122h-15.4V12.5h53.1v18.3h-15.6v122H455z"/>
	<path style="fill:#D2232A;" d="M495.7,12.5h22.1v113.9c0,4.1,0.5,6.8,1.4,8.1c0.9,1.3,2.6,2,4.9,2c2.3,0,3.9-0.7,4.8-2
		c0.9-1.3,1.4-4,1.4-8.1V12.5h22.1v108.9c0,11-2.4,19.3-7,24.7c-4.7,5.5-11.7,8.2-21.1,8.2c-9.5,0-16.5-2.7-21.3-8.2
		c-4.7-5.5-7.1-13.7-7.1-24.7V12.5z"/>
	<path style="fill:#D2232A;" d="M557.8,152.8V12.5h23.5c13,0,21.7,2.1,26.1,6.3c4.4,4.2,6.6,12.3,6.6,24.4v76.5
		c0,12.5-2.1,21.1-6.4,25.9c-4.3,4.8-11.9,7.1-22.8,7.1H557.8z M579.8,135h2c3.7,0,6.3-1,7.8-3.1c1.5-2.1,2.3-5.8,2.3-11.1V42.4
		c0-4.8-0.7-8.1-2.2-9.8c-1.5-1.8-4.1-2.7-7.9-2.7h-2V135z"/>
	<path style="fill:#D2232A;" d="M619.3,152.8V12.5h49.5v17.8h-27.5v35.5h27.5v17.9h-27.5v50.7h27.5v18.3H619.3z"/>
	<path style="fill:#D2232A;" d="M673.5,152.8V12.5h18l18.6,92.5c-0.5-10-0.9-18.3-1.2-25c-0.3-6.7-0.4-11.7-0.4-14.9V12.5h19.7
		v140.3h-18.8l-17.9-91.2c0.6,7.2,1,13.9,1.3,20c0.3,6.1,0.4,11.7,0.4,16.9v54.4H673.5z"/>
	<path style="fill:#D2232A;" d="M747,152.8v-122h-15.4V12.5h53.1v18.3H769v122H747z"/>
</g>
<rect x="-23" y="-27" style="fill:none;" width="991" height="225.4"/>
</svg>
